<?xml version="1.0" encoding="UTF-8"?> <svg xmlns="http://www.w3.org/2000/svg" viewBox="0 0 2343.49 234.92"><path d="m817.9 6.94c-1.15 0-2.11.62-2.68 1.5l-121.01 163.54-121.02-163.54c-.58-.89-1.54-1.5-2.68-1.5-1.79 0-3.23 1.41-3.23 3.15v217.9h32v-128.68l93.04 124.81c.45.53 1.13.89 1.88.89s1.42-.36 1.87-.89l93.04-124.81v128.68h32v-217.9c0-1.74-1.45-3.15-3.22-3.15"></path><path d="m1016.88 6.94h-106.64v221.05h32v-79.23h74.64c39.16 0 70.9-31.74 70.9-70.92s-31.74-70.9-70.9-70.9zm0 109.82h-74.64v-77.83h74.64c21.46 0 38.91 17.47 38.91 38.91s-17.45 38.91-38.91 38.91z"></path><path d="m185.02 169.69c-15.64 20.19-40.11 33.22-67.58 33.22-47.11 0-85.46-38.33-85.46-85.46s38.36-85.44 85.47-85.44c27.47 0 51.93 13.03 67.58 33.22l22.98-22.58c-21.55-26.05-54.11-42.65-90.56-42.65-64.86 0-117.45 52.59-117.45 117.46s52.59 117.46 117.45 117.46c36.45 0 69.01-16.6 90.55-42.64l-22.98-22.58z"></path><path d="m1455.45 231.93c-37.02 0-62.87-20.48-78.04-37.66l22.55-22.02c5.66 7.32 24.65 28.4 55.49 28.4 28.83 0 48.95-14.5 48.95-35.27 0-17.76-12.09-29.71-36.95-36.52l-26.97-6.13c-57.68-14.12-57.68-48.68-57.68-60.03 0-35.71 28.84-59.71 71.76-59.71 28.18 0 52.15 10.72 73.3 32.79l-22.56 22.04c-5.78-6.05-24.75-23.56-50.74-23.56s-39.75 10.36-39.75 28.44c0 5.38 2.04 23.39 28.37 29.04l24.53 5.52c44.93 10.55 68.7 34.1 68.7 68.11 0 37.94-34.8 66.54-80.95 66.54"></path><path d="m1670.91 231.93c-37.02 0-62.87-20.48-78.04-37.66l22.55-22.02c5.66 7.32 24.65 28.4 55.49 28.4 28.83 0 48.96-14.5 48.96-35.27 0-17.76-12.09-29.71-36.96-36.52l-26.97-6.13c-57.67-14.12-57.67-48.68-57.67-60.03 0-35.71 28.83-59.71 71.75-59.71 28.18 0 52.15 10.72 73.3 32.79l-22.55 22.04c-5.79-6.05-24.76-23.56-50.75-23.56s-39.75 10.36-39.75 28.44c0 5.38 2.05 23.39 28.37 29.04l24.53 5.52c44.94 10.55 68.71 34.1 68.71 68.11 0 37.94-34.81 66.54-80.96 66.54"></path><path d="m381.78 0c-64.87 0-117.46 52.6-117.46 117.46s52.59 117.46 117.46 117.46 117.46-52.59 117.46-117.46-52.58-117.46-117.46-117.46zm0 202.93c-47.12 0-85.46-38.34-85.46-85.47s38.33-85.46 85.46-85.46 85.46 38.33 85.46 85.46-38.33 85.47-85.46 85.47z"></path><path d="m326.45 101.46h110.66v32h-110.66z" transform="matrix(.70723018 -.70698336 .70698336 .70723018 28.72 304.28)"></path><path d="m1221.08 6.83c-.51-1.09-1.61-1.85-2.91-1.85s-2.41.76-2.91 1.85l-116.68 221.16h36.2l29.87-56.66h107.04l29.87 56.66h36.19zm-39.56 132.51 36.65-69.5 36.64 69.5z"></path><path d="m1929.41 6.92h116.87c35.06 0 63.49 28.43 63.49 63.49s-28.43 63.49-63.49 63.49h-18.95l93.81 94.13h-28.43l-94.13-94.13h-48.96v94.13h-20.21zm116.87 106.76c24.01 0 43.27-19.27 43.27-43.27s-19.27-43.27-43.27-43.27h-96.65v86.54z"></path><path d="m2182.41 6.92h160.14v20.21h-139.92v80.23h132.66v20.21h-132.66v80.23h140.87v20.21h-161.09z"></path></svg> 