<?xml version="1.0" encoding="UTF-8"?> <svg xmlns="http://www.w3.org/2000/svg" viewBox="0 0 1776.06 294.02"><g fill="#fff"><path d="m368.5 148.88h-43v-59.13h-13.18v59.13h-50.32l25.11-72.4h25.18v.13h13.14v-.13h58.85v18.88h13.14v-32h-72v-50.19h26.61v-13.17h-26.57-25.68l-22 63.35h-145.9l-21.97-63.35h-25.68-26.57v13.17h26.57v135.71h-40.12c-17.08 0-31-16.24-31-36.2s13.9-36.2 31-36.2h27v-13.13h-27c-24.32 0-44.11 22.13-44.11 49.33s19.79 49.32 44.11 49.32h40.12v52.6h13.14v-52.6h54.84l22.79 65.74h-154.93v-20h-13.14v33.1h77.3v40h-19.63v13.16h52.4v-13.12h-19.63v-40h82.2l18.33 52.82h13.89l18.33-52.83h82.2v40h-19.8v13.13h52.39v-13.12h-19.45v-118.88h43c15.46 0 28 14.74 28 32.86s-12.58 32.87-28 32.87h-29.87v13.13h29.91c22.71 0 41.17-20.63 41.17-46s-18.46-45.98-41.17-45.98zm-59.39-135.71h3.21v50.18h-20.62zm-35.86 63.31-25.12 72.4h-86.58l-25.11-72.4zm-175.88-63.31h3.21l17.42 50.18h-20.63zm0 135.71v-72.4h25.17l25.12 72.4zm68.74 13.12h77.47l-22.8 65.73h-31.87zm38.73 111.66-11.37-32.8h22.75zm107.48-45.93h-77.65l22.8-65.73h54.85z"></path><path d="m665.4 94.92v106.17h-17.57v-79.59l-30.71 79.59h-15.27l-30.85-79.59v79.59h-17.43v-106.17h21.08l35.14 84.78 34.53-84.78z"></path><path d="m780.25 177.72h-45.53l-8.25 23.37h-18.63l39.72-106.17h20l39.57 106.17h-18.63zm-4.89-13.45-17.87-50.41-17.88 50.41z"></path><path d="m906.24 201.09-26.89-43.09h-12.35v43.08h-17.44v-107.84h38q18.48 0 28 9t9.55 23.83q0 12.67-7.1 20.78t-20.55 10.38l28.26 43.85zm-39.24-55.45h19.24q21.09 0 21.09-18.64 0-8.86-5.12-13.83t-16-5h-19.21z"></path><path d="m1051.24 102.25q13.14 10.08 17.73 27.34h-18.49a32.91 32.91 0 0 0 -12.15-15.5q-8.32-5.73-20.39-5.73a31.68 31.68 0 0 0 -17.19 4.74 32.47 32.47 0 0 0 -11.91 13.52 45.6 45.6 0 0 0 -4.36 20.54 45.31 45.31 0 0 0 4.36 20.4 32.59 32.59 0 0 0 11.91 13.52 31.67 31.67 0 0 0 17.19 4.73q12.06 0 20.39-5.73a33 33 0 0 0 12.15-15.35h18.52q-4.62 17.27-17.76 27.27t-33 10q-15.27 0-27-6.95a47 47 0 0 1 -18.24-19.4q-6.42-12.45-6.42-28.49t6.42-28.49a47.53 47.53 0 0 1 18.18-19.48q11.76-7 27-7 19.92-.02 33.06 10.06z"></path><path d="m1250.3 187.11a27.82 27.82 0 0 1 -11.61 10.89q-7.8 4.13-19.1 4.13a47.76 47.76 0 0 1 -19.71-3.9 34.19 34.19 0 0 1 -13.9-10.92 31 31 0 0 1 -6-16.19h18.64a19.14 19.14 0 0 0 6 12.07q5.27 5 14.13 5 7.93 0 12.29-4.28a14.73 14.73 0 0 0 4.36-11 14.16 14.16 0 0 0 -3.21-9.55 22.66 22.66 0 0 0 -7.94-5.88c-3.16-1.42-7.49-3.06-13-4.89a114.14 114.14 0 0 1 -16.42-6.41 29.86 29.86 0 0 1 -10.77-9.32q-4.44-6.12-4.43-16a27.3 27.3 0 0 1 4.28-15.28 27.75 27.75 0 0 1 12.22-10.16 44.12 44.12 0 0 1 18.33-3.59q16.5 0 26.2 7.94a30 30 0 0 1 11.08 20.78h-18.74a18.32 18.32 0 0 0 -5.72-10.46q-4.66-4.37-12.76-4.36-7.33 0-11.76 3.74t-4.43 10.78a13.54 13.54 0 0 0 3.05 9.09 21.35 21.35 0 0 0 7.72 5.65q4.65 2.05 12.75 4.81a112.46 112.46 0 0 1 16.73 6.49 30.4 30.4 0 0 1 11 9.55q4.5 6.27 4.51 16.5a29.64 29.64 0 0 1 -3.79 14.77z"></path><path d="m1319.76 93.24v107.85h-17.42v-107.85z"></path><path d="m1389.82 187.49h37.27v13.6h-54.69v-107.85h17.42z"></path><path d="m1467.42 93.24 31 89.21 31.16-89.21h18.94l-39 107.85h-22.31l-38.8-107.85z"></path><path d="m1608.38 107.29v32.71h39.72v13.45h-39.72v33.45h44.31v14.21h-61.69v-107.87h61.72v14.05z"></path><path d="m1756.51 201.09-26.89-43.09h-12.37v43.08h-17.42v-107.84h38q18.48 0 28 9t9.55 23.83q0 12.67-7.1 20.78t-20.55 10.38l28.26 43.85zm-39.26-55.45h19.25q21.07 0 21.08-18.64 0-8.86-5.12-13.83t-16-5h-19.25z"></path></g></svg> 