<?xml version="1.0" encoding="UTF-8"?> <svg xmlns="http://www.w3.org/2000/svg" viewBox="0 0 409.67 294.02"><path d="m368.5 148.88h-43v-59.13h-13.18v59.13h-50.32l25.11-72.4h25.18v.13h13.14v-.13h58.85v18.88h13.14v-32h-72v-50.19h26.61v-13.17h-26.57-25.68l-22 63.35h-145.9l-21.97-63.35h-25.68-26.57v13.17h26.57v135.71h-40.12c-17.08 0-31-16.24-31-36.2s13.9-36.2 31-36.2h27v-13.13h-27c-24.32 0-44.11 22.13-44.11 49.33s19.79 49.32 44.11 49.32h40.12v52.6h13.14v-52.6h54.84l22.79 65.74h-154.93v-20h-13.14v33.1h77.3v40h-19.63v13.16h52.4v-13.12h-19.63v-40h82.2l18.33 52.82h13.89l18.33-52.83h82.2v40h-19.8v13.13h52.39v-13.12h-19.45v-118.88h43c15.46 0 28 14.74 28 32.86s-12.58 32.87-28 32.87h-29.87v13.13h29.91c22.71 0 41.17-20.63 41.17-46s-18.46-45.98-41.17-45.98zm-59.39-135.71h3.21v50.18h-20.62zm-35.86 63.31-25.12 72.4h-86.58l-25.11-72.4zm-175.88-63.31h3.21l17.42 50.18h-20.63zm0 135.71v-72.4h25.17l25.12 72.4zm68.74 13.12h77.47l-22.8 65.73h-31.87zm38.73 111.66-11.37-32.8h22.75zm107.48-45.93h-77.65l22.8-65.73h54.85z" fill="#fff"></path></svg> 